<?xml version="1.0" encoding="UTF-8"?>
<svg id="DEMO_MODE" data-name="DEMO MODE" xmlns="http://www.w3.org/2000/svg" viewBox="0 0 841.89 595.28">
  <defs>
    <style>
      .cls-1, .cls-2, .cls-3, .cls-4, .cls-5, .cls-6 {
        fill: none;
      }

      .cls-1, .cls-3, .cls-4 {
        stroke-miterlimit: 10;
      }

      .cls-1, .cls-3, .cls-4, .cls-5, .cls-6 {
        stroke: #231f20;
      }

      .cls-7 {
        fill: #0c8542;
      }

      .cls-7, .cls-8 {
        stroke-width: 0px;
      }

      .cls-2 {
        stroke: #0c8542;
      }

      .cls-2, .cls-4 {
        stroke-width: 2px;
      }

      .cls-2, .cls-5, .cls-6 {
        stroke-linecap: round;
        stroke-linejoin: round;
      }

      .cls-3 {
        stroke-width: .75px;
      }

      .cls-8 {
        fill: #010101;
      }

      .cls-5 {
        fill-rule: evenodd;
      }
    </style>
  </defs>
  <path class="cls-4" d="M473.91,157.22c0-37.68-59.49-57.4-80.47-11.9h-.05c-35.96-.89-44.55,56.45-4.83,63.89h95.01c30.06-5.29,30.6-55.75-9.66-51.99Z"/>
  <path class="cls-7" d="M268.13,490.11c-.36.25-.73.5-1.08.76-1.08.81-2.13,1.66-3.23,2.44-1.29.93-2.71,1.65-4.24,2.09-.76.22-1.51.02-2.21-.3-.44-.2-.48-.61-.14-.96.21-.22.44-.43.67-.63.41-.35.69-.78.78-1.32.1-.61.43-1.11.76-1.62.88-1.35,1.8-2.68,2.85-3.92.12-.14.23-.3.31-.47.19-.37-.04-.74-.45-.72-1.38.07-2.75.17-4.13.22-1.63.06-3.27.1-4.91.12-.85.01-1.69.05-2.46.49-.33.19-.67.2-1.01-.01-.34-.21-.65-.16-.95.1-.7.6-1.38,1.21-2.1,1.78-1.55,1.22-3.11,2.42-4.66,3.63-.59.46-1.23.64-2.01.56-.64-.07-1.31.06-1.96.14-.28.04-.47,0-.61-.26-.38-.76-.3-.97.61-1.17.19-.04.35.01.44.21.1.2.27.24.48.28.92.16,1.72-.07,2.46-.63,1.75-1.3,3.54-2.57,5.29-3.88.87-.65,1.69-1.36,2.5-2.07.59-.53,1.26-.68,2-.51,1.51.34,3.01.18,4.51-.1,1.01-.19,2.04-.29,3.07-.42.15-.02.31.01.53.02-.46-.31-.86-.6-1.28-.84-.13-.07-.34-.04-.51-.02-.3.04-.53-.07-.59-.33-.06-.27.11-.55.41-.58.46-.05.9-.1,1.3.28.26.25.63.39.96.55.21.1.35.03.42-.21.04-.14.12-.27.2-.39.37-.55.75-1.09,1.11-1.64.41-.62.98-.83,1.7-.75.53.06,1.06.05,1.59.11.89.1,1.78.19,2.66.34.46.07.81,0,1.1-.37.62-.82,1.41-1.38,2.42-1.63.24-.06.46-.17.68-.29.45-.24.56-.51.4-1-.11-.31-.26-.62-.4-.92-.15-.32-.33-.63-.47-.95-.14-.33.06-.75.41-.84.11-.03.27.02.36.1.18.15.32.34.48.52.09.1.19.19.29.28.03-.01.07-.02.1-.03-.01-.19,0-.39-.05-.58-.06-.22-.18-.42-.25-.63-.08-.23,0-.37.26-.43.54-.12.85.13.88.72,0,.18,0,.35,0,.53,0,.17,0,.35.06.54.03-.07.07-.14.1-.21.16-.38.28-.46.7-.45.29.01.57.05.86.04.54-.01.77-.23.75-.77-.04-.95-.11-1.91-.16-2.86-.07-1.25-.18-2.5-.17-3.75,0-1.24-.27-2.42-.64-3.58-.08-.27-.14-.55-.22-.85.32-.05.52.12.65.31.49.75.85,1.55.72,2.49-.04.31.03.64.06.96.06.57.16,1.13.2,1.7.13,1.59.23,3.18.35,4.77.04.47-.08.89-.24,1.32-.06.14-.08.29-.13.45.3.09.51.01.66-.2.18-.26.36-.52.51-.79.38-.69.92-1.19,1.62-1.55,1-.51,1.95-1.13,2.99-1.53,1.12-.43,2.2-.89,3.2-1.55.2-.13.29-.03.33.16.09.39,0,.57-.39.74-.58.25-1.18.44-1.74.72-1.44.72-2.9,1.44-4.16,2.46-.64.52-1.22,1.12-1.79,1.71-.4.42-.37.47-.02.91.51.63.69,1.36.58,2.16-.01.11-.03.22-.03.32-.03.58-.13.68-.71.76-.24.03-.49.06-.72.13-.09.03-.21.15-.21.24-.02.35-.02.71,0,1.06,0,.07.07.17.13.21.33.23.68.41,1.11.43.67.04,1.33.1,2,.18.15.02.31.08.43.17.37.28.79.27,1.1.02.43-.33.91-.35,1.39-.38.32-.02.58-.11.84-.31.19-.14.44-.21.67-.29.18-.06.36,0,.45.19.12.28.23.56.32.85.05.17-.04.29-.24.28-.14,0-.28.01-.41-.03-.37-.1-.68,0-.96.22-.26.22-.52.45-.77.69-.53.5-1.28.86-2.2.38-.56-.29-1.24-.35-1.86-.51-.64-.17-1.29-.34-1.94-.49-.19-.04-.42-.05-.6.02-.24.08-.44.25-.66.39-.3.2-.45.45-.42.84.02.34-.11.68-.1,1.02.04.76.17,1.51.19,2.26.03,1.23.01,2.46,0,3.69,0,.38-.03.76-.04,1.15,0,.35.15.63.39.86.49.47.99.93,1.5,1.38,1.07.94,1.87,2.11,2.72,3.23.29.38.6.72,1.03.96.6.34.8.94.57,1.57-.07.2-.19.3-.42.3-.46,0-.82-.2-.94-.65-.16-.56-.48-.95-.98-1.23-.27-.15-.42-.39-.51-.69-.07-.21-.18-.43-.33-.58-1.14-1.1-2.28-2.21-3.47-3.26-.68-.61-1.05-1.28-1-2.21.07-1.24.09-2.48.12-3.72,0-.3-.06-.61-.1-.91-.03-.22-.19-.27-.33-.13-.27.29-.61.57-.75.92-.62,1.58-1.68,2.86-2.69,4.18-1.24,1.63-2.9,2.78-4.55,3.92-.99.69-2.02,1.33-3.04,1.99-.65.42-1.21.91-1.6,1.58-.15.26-.34.51-.49.77-.28.47-.64.8-1.2.91-.21.04-.46.22-.57.4-.57.99-1.13,1.98-1.63,3.01-1.53,3.12-3.15,6.19-4.85,9.22-.13.23-.17.51-.21.78-.06.37-.21.69-.58.82-.38.14-.63.39-.84.7-.25.36-.49.74-.76,1.09-.17.21-.41.35-.59.55-.11.12-.21.28-.24.44-.05.28-.05.57-.07.85-.03.37-.18.48-.52.32-.23-.11-.45-.25-.65-.4-.19-.14-.21-.32-.05-.51.06-.08.12-.16.19-.22.55-.47.91-1.08,1.31-1.66.32-.46.7-.88,1.06-1.31.27-.32.44-.66.32-1.1-.07-.23.04-.4.29-.4.23,0,.35-.11.44-.28.5-.89,1.01-1.78,1.49-2.68.52-.97,1.04-1.94,1.52-2.93.58-1.19,1.13-2.4,1.68-3.61.39-.85.81-1.69,1.12-2.56.41-1.15,1.11-2.03,2.1-2.7.67-.46,1.38-.88,2.06-1.32,1.27-.81,2.26-1.93,3.32-2.97.93-.91,1.87-1.81,2.83-2.69.28-.26.64-.43.95-.64.38-.26.5-.73.26-1.13ZM260.71,483.36c.15.01.22.02.29.02,1.1,0,2.21.06,3.31.01.9-.04,1.54-.59,2.04-1.3.05-.07.06-.16.09-.25.07-.24-.01-.41-.27-.39-.71.04-1.43.08-2.13.19-.38.06-.75.15-1.13.06-.23-.05-.47-.08-.7-.12-.25-.04-.43,0-.56.26-.18.35-.39.69-.59,1.02-.09.15-.21.3-.35.49Z"/>
  <g>
    <path class="cls-6" d="M430.61,384.6c-1.47,5.18-1.22,10.2,1.17,13.48,2.39,3.27,6.7,4.03,6.7,4.03l18.32,2.54"/>
    <path class="cls-6" d="M454.61,382.73c-6.47-1.1-15.25-2.28-17.56-2.08s-3.49.44-6.29,2.03-3.76,2.13-3.76,2.13l-.53.71c.14.3.23.7.22,1.22,0,2.13-.61,3.65-2.11,4.57-.46.28-1.99,1.02-3.9,1.92l-1,1.33s0,5.37,5.18,7.71c5.18,2.35,12.47,2.81,14.98,2.33,3.35-.64,7.89-1,8.59.03.78,1.14-.1,1.24.38,1.67.48.43,1.42.53,2.59.53s3.88-.91,7.76-2.03c3.88-1.12,4.77-6.72,4.77-11.47-.34-5.18-3.39-9.59-9.34-10.61Z"/>
    <path class="cls-6" d="M421.4,386.06s1.2-.49,2.89-1.09c1.31-.47,2.42-.19,2.42,1.77,0,2.13-.61,3.65-2.11,4.57-1.5.91-14.44,6.75-14.49,6.78s-4.06,2.31-5.02,3.27c-.96.96-1.12,1.42-1.12,1.42,0,0-.36-5.63-.3-5.99s-.1-1.42,1.42-2.79,4.11-2.49,4.11-2.49l12.2-5.44Z"/>
    <path class="cls-6" d="M416.6,396.12c.3,3.4,1.42,7.66,5.79,9.29,4.36,1.62,7.61,1.73,11.27,1.42s6.97-1.23,8.17-1.52,3.65-.81,4.62-.15c.96.66.41,1.52,0,2.18-.41.66-.4,1.07.53,1.52s2.02.61,2.74.47c1.5-.29,1.71-1.09,2.13-1.99"/>
    <path class="cls-6" d="M409.07,399.4c2.21.63,5.63,1.19,7.94,1.34"/>
    <path class="cls-6" d="M412.64,389.32c2.18-5.63,4.36-10.81,10.45-14.16,6.09-3.35,11.01.3,12.94,4.72"/>
    <path class="cls-6" d="M420.56,385.67c2.59-4.11,4.36-7.36,10.71-10.1"/>
    <path class="cls-6" d="M428.27,373.86l7.76,1.05s3.55.36,6.19,5.43"/>
    <path class="cls-6" d="M404.46,403.46c9.55,2.26,12.14,2.56,19.37,2.97"/>
  </g>
  <path class="cls-7" d="M224.12,406.5c0-16.09,0-32.18.2-48.27.22-16.08.62-32.16,1.7-48.2,1.08-16.03,2.78-32.04,6.09-47.74,1.66-7.84,3.76-15.59,6.48-23.12,2.76-7.5,6.13-14.8,10.44-21.52,4.25-6.75,9.5-12.86,15.53-18.06,3.01-2.61,6.27-4.92,9.65-7.03,3.39-2.09,6.92-3.96,10.59-5.53,7.31-3.19,15.03-5.43,22.89-6.9,7.86-1.52,15.85-2.28,23.86-2.58l10.17-.21-1.73,4.13c3.93-1.72,7.78-3.44,11.56-5.15-3.93-1.54-7.79-3.08-11.58-4.62l1.74,4.05-10.21.22c-8.07.3-16.14,1.07-24.09,2.61-7.95,1.49-15.79,3.76-23.23,7.01-3.73,1.6-7.33,3.5-10.79,5.64-3.45,2.14-6.77,4.5-9.84,7.17-6.16,5.31-11.51,11.54-15.84,18.41-4.38,6.84-7.8,14.24-10.59,21.83-2.75,7.61-4.87,15.43-6.54,23.33-3.34,15.81-5.04,31.89-6.12,47.96-1.08,16.08-1.48,32.19-1.7,48.28-.21,16.1-.2,32.2-.2,48.29h1.59Z"/>
  <path class="cls-8" d="M492.21,373.1h17.98c1.33,0,2.54.54,3.42,1.42.88.88,1.42,2.09,1.42,3.42v37.98c0,1.33-.54,2.54-1.42,3.42-.88.88-2.09,1.42-3.42,1.42h-17.98c-1.33,0-2.54-.54-3.42-1.42-.88-.88-1.42-2.09-1.42-3.42v-37.98c0-1.33.54-2.54,1.42-3.42.88-.88,2.09-1.42,3.42-1.42h0ZM498.59,416.92c-.32,0-.58-.26-.58-.58s.26-.58.58-.58h5.32c.32,0,.58.26.58.58s-.26.58-.58.58h-5.32ZM498.1,375.88c.51,0,.92.41.92.92s-.41.92-.92.92-.92-.41-.92-.92c0-.51.41-.92.92-.92h0ZM501.2,375.88c.51,0,.92.41.92.92s-.41.92-.92.92-.92-.41-.92-.92.41-.92.92-.92h0ZM504.3,375.88c.51,0,.92.41.92.92s-.41.92-.92.92-.92-.41-.92-.92.41-.92.92-.92h0ZM488.54,411.6h25.33v-31.05h-25.33v31.05h0ZM513.86,412.77h-25.33v3.15c0,1.01.41,1.93,1.08,2.59.67.67,1.59,1.08,2.59,1.08h17.98c1.01,0,1.93-.41,2.59-1.08.67-.67,1.08-1.59,1.08-2.59v-3.15h0ZM488.54,379.39h25.33v-1.45c0-1.01-.41-1.93-1.08-2.59-.67-.67-1.59-1.08-2.6-1.08h-17.98c-1.01,0-1.93.41-2.59,1.08-.67.67-1.08,1.59-1.08,2.59v1.45h0Z"/>
  <path class="cls-5" d="M324.49,373.44h50.36c.8,0,1.45.65,1.45,1.45v33.36c0,.8-.65,1.45-1.45,1.45h-50.36c-.8,0-1.45-.65-1.45-1.45v-33.36c0-.8.65-1.45,1.45-1.45h0ZM349.67,404.83c1.03,0,1.86.83,1.86,1.86s-.83,1.86-1.86,1.86-1.86-.83-1.86-1.86c0-1.03.83-1.86,1.86-1.86h0ZM327.4,376.17h44.55c.71,0,1.28.58,1.28,1.28v24.93c0,.7-.58,1.28-1.28,1.28h-44.55c-.7,0-1.28-.58-1.28-1.28v-24.93c0-.7.57-1.28,1.28-1.28h0ZM338.26,417.61l11.41-5.91,11.41,5.91"/>
  <path class="cls-5" d="M198.15,411.7h50.36c.8,0,1.45.65,1.45,1.45v33.36c0,.8-.65,1.45-1.45,1.45h-50.36c-.8,0-1.45-.65-1.45-1.45v-33.36c0-.8.65-1.45,1.45-1.45h0ZM223.33,443.08c1.03,0,1.86.83,1.86,1.86s-.83,1.86-1.86,1.86-1.86-.83-1.86-1.86c0-1.03.83-1.86,1.86-1.86h0ZM201.06,414.43h44.55c.71,0,1.28.58,1.28,1.28v24.93c0,.7-.58,1.28-1.28,1.28h-44.55c-.7,0-1.28-.58-1.28-1.28v-24.93c0-.7.57-1.28,1.28-1.28h0ZM211.92,455.87l11.41-5.91,11.41,5.91"/>
  <g>
    <line class="cls-2" x1="397.63" y1="224.38" x2="366.19" y2="356.45"/>
    <polygon class="cls-7" points="364.33 364.28 362.45 352.18 366.33 355.87 371.46 354.32 364.33 364.28"/>
  </g>
  <g>
    <line class="cls-2" x1="436.04" y1="224.38" x2="436.04" y2="356.23"/>
    <polygon class="cls-7" points="436.04 364.28 431.4 352.94 436.04 355.63 440.67 352.94 436.04 364.28"/>
  </g>
  <g>
    <line class="cls-2" x1="469.63" y1="224.38" x2="497.79" y2="356.41"/>
    <polygon class="cls-7" points="499.47 364.28 492.57 354.16 497.67 355.82 501.64 352.22 499.47 364.28"/>
  </g>
  <g>
    <path class="cls-1" d="M366.77,179.68c.27-.2.56-.37.79-.6,4.08-4.04,8.14-8.09,12.24-12.1.35-.35.96-.56,1.46-.59,1.16-.07,2.34-.04,3.5.04.85.06,1.4-.18,1.78-1,.42-.91,1.03-1.73,1.46-2.64.42-.89,1.05-1.34,2.02-1.59,5.73-1.47,11.45-3.01,17.27-4.56.47,1.75.94,3.47,1.4,5.2,1.13,4.19,2.27,8.37,3.36,12.57.1.4.03.93-.17,1.3-.63,1.19-1.33,2.36-2.06,3.5-.32.5-.3.88.01,1.37.67,1.06,1.25,2.19,1.95,3.23.44.65.4,1.25.21,1.95-1.57,5.79-3.12,11.59-4.68,17.38h-.38c-.17-.08-.33-.17-.5-.22-5.62-1.51-11.25-3.02-16.88-4.5-.6-.16-.99-.42-1.28-.97-.62-1.17-1.26-2.32-1.98-3.43-.21-.32-.7-.62-1.08-.64-1.32-.06-2.65.06-3.97,0-.5-.03-1.11-.25-1.46-.6-4.1-4.01-8.16-8.06-12.23-12.1-.23-.23-.53-.41-.79-.61,0-.13,0-.25,0-.38ZM376.22,182.13c.18.25.24.35.32.44,3.16,3.21,6.32,6.43,9.51,9.63.27.27.68.45,1.06.55,2.41.64,4.82,1.26,7.23,1.87,2.03.52,4.06,1.02,6.3,1.59-2.74-4.7-5.36-9.22-8.01-13.72-.11-.19-.45-.33-.69-.33-5.18-.02-10.36-.01-15.72-.01ZM400.62,163.56c-.37.08-.52.11-.67.15-4.24,1.08-8.49,2.16-12.73,3.27-.49.13-1,.4-1.36.75-3.06,3.05-6.08,6.14-9.11,9.22-.16.16-.29.36-.45.56.15.05.2.08.26.08,5.12,0,10.23.02,15.35-.02.31,0,.72-.33.89-.62,1.13-1.86,2.2-3.74,3.29-5.62,1.47-2.53,2.93-5.06,4.51-7.78ZM404.58,193.86c.11-.29.16-.41.2-.53,1.22-4.32,2.45-8.64,3.64-12.97.1-.37.04-.81-.06-1.19-1.15-4.18-2.32-8.35-3.49-12.52-.06-.22-.17-.42-.26-.65-.11.11-.17.15-.2.2-2.57,4.4-5.14,8.8-7.67,13.22-.15.26-.07.79.1,1.08,1.18,2.11,2.42,4.2,3.63,6.29,1.34,2.31,2.68,4.61,4.11,7.07Z"/>
    <path class="cls-1" d="M420.99,170.69c1.39,0,2.7-.03,4.02.04.16,0,.43.53.43.82.03,2.99,0,5.98.03,8.98,0,.75.03,1.52.19,2.25.46,2.09,1.7,3,3.95,2.98,2.2-.02,3.65-1.09,4.05-3.08.14-.7.19-1.44.2-2.16.02-2.9,0-5.79,0-8.69,0-.34,0-.68,0-1.14,1.39,0,2.71-.03,4.03.03.16,0,.41.48.42.75.04,1.98.02,3.97.02,5.95,0,3.59,0,7.18,0,10.77,0,.34,0,.68,0,1.09h-4.18c-.03-.67-.06-1.3-.1-2.19-1.7,2.45-3.99,2.98-6.58,2.8-3.41-.23-5.69-2.24-6.27-5.61-.13-.74-.2-1.5-.2-2.25-.02-3.46,0-6.93,0-10.39,0-.28,0-.56,0-.95Z"/>
    <path class="cls-1" d="M444.59,189.29h-4.42v-18.52h4.07v2.05c.13-.01.22,0,.24-.03,2.11-3.24,6.82-3.14,9.31-1.88,2.43,1.24,3.41,3.46,3.5,5.98.15,4.06.05,8.12.05,12.18,0,.05-.05.11-.1.22h-4.3c-.02-.35-.04-.69-.04-1.02,0-2.8,0-5.6,0-8.41,0-.6,0-1.2-.05-1.79-.19-2.45-1.59-3.76-3.97-3.76-2.49,0-4.11,1.36-4.21,3.76-.12,2.77-.06,5.54-.07,8.31,0,.94,0,1.88,0,2.9Z"/>
    <path class="cls-1" d="M480.26,195.91c.84-1.99,1.56-3.89,2.45-5.72.53-1.09.48-2,.03-3.1-2.07-5.1-4.05-10.23-6.06-15.35-.11-.29-.22-.58-.39-1.04,1.56,0,3.02-.03,4.48.04.2,0,.44.47.55.77,1.3,3.47,2.58,6.96,3.86,10.44.11.29.23.57.42,1.05.19-.44.32-.7.42-.97,1.27-3.49,2.55-6.97,3.78-10.47.24-.69.58-.92,1.29-.88,1.22.06,2.44.02,3.8.02-.56,1.44-1.05,2.72-1.55,4-2.65,6.76-5.31,13.52-7.92,20.3-.29.76-.67.98-1.44.95-1.19-.06-2.38-.02-3.71-.02Z"/>
    <path class="cls-1" d="M468.28,174.16h-3.05v-3.44h2.97v-6.45h4.49v6.23c.15.08.2.15.25.14,1.41-.27,2.03.48,2.32,1.74.13.57.39,1.1.63,1.75h-3.16v15.16h-4.45v-15.13Z"/>
    <path class="cls-1" d="M463.53,189.3h-4.38v-18.55h4.38v18.55Z"/>
    <path class="cls-1" d="M463.52,168.11h-4.36v-3.84h4.36v3.84Z"/>
  </g>
  <g>
    <path class="cls-3" d="M149.65,491.42c8.53-2.74,18.34.03,25.85,13.74.67,1.32,1.54.99,1.5-.35.16-1.38-.05-7.21-3.69-12.36-.13-.27,0-.41.21-.6.86-.64,7.16-1.97,14.22-7.03.54-.37,2.9-1.5,2.51-4.84-1.18-8.26-7.76-13.85-9.59-14.98-1.83-1.13-1.64.84-1.61,1.15-.33,6.38-2.24,15.76-9.07,22.16-2.43-.68-3.29-2.42-3.29-2.42,0,0,9.21-12.01,6.82-21.6-.62-2.7-1.37-3.66-4.37-3.04-3.01.6-10.16,2.86-10.16,2.86,0,0-1.11.43-.24,1.56.87,1.13,5.11,5.39,1.65,17.31-3.13-1.07-10.04-2.39-10.72-.51-.7,1.88-3.09,8.88-.02,8.96Z"/>
    <path class="cls-3" d="M223.36,488.32c-1.92,1.83-12.61,9.83-16.65,10.96-4.04,1.13-4.76-.92-4.17-1.42.35-.37,9.35-10.08-.64-4.85-3.66,1.35-7.24-1.64-7.99-4.29-1.59-5.07-1.54-6.08-5.14-2.97-1.94,1.61-5.39,3.32-6.71,3.8-3.94.94-5.52,5.36-2.32,5.81,3.2.45,4.93-.06,4.06.86-.87.92-2.16,1.73-.7,2.55,1.46.8,4.25,2.77,4.41,2.96.16.19,1.45.35,1.83-.59.38-.94.05-1.19-.21-1.34-.25-.14.02-.56.64-.49.6.06,2.07-.49,2.42-.75.35-.25,4.49-.94,5.5.49-1.15.37-1.48-.38-3.1.19-.89.35-3.05.62-4.07,2.91-.76,1.72-1.05,5.27-4.15,4.26-3.1-1-6.3-1.96-5.81-5.07.49-3.13.29-5.15-1.46-5.27-.1.49.43,3.39,0,5.79-.7,1.78-.94,2.86.45,3.94s11.77,5.98,17.85,12.5c2.32,2.37,3.5-.57,1.78-1.94-.48-.52-2.69-2.5-2.64-3.18s1.32.64,1.78,1.13c-1.27-2.56,1.51-5.84,4.47-2.15,1.21,1.16.37,3.93-.67,4.68,1.13-1.13-.84-3.96-2.42-2.39-.81.78,1.43,2.56,1.92,2.99.51.45,2.29-1.05,2.91-2.08.46-.64,1.13-1.18,2.08-5.33.3-1.08.7-1.46,1.65-2.42s14.95-12.69,16.51-17.62c.94-2.59.51-3.5-1.42-1.67ZM186.85,500.08c-.19-.21-.68-.75-2.18-1.59-.35-.91.46-1.02.86-1,.41.02,1.99,1.11,2.43,1.91.11.97-.92.87-1.11.68Z"/>
  </g>
</svg>