<?xml version="1.0" encoding="UTF-8"?>
<svg id="DEMO_MODE" data-name="DEMO MODE" xmlns="http://www.w3.org/2000/svg" viewBox="0 0 841.89 595.28">
  <defs>
    <style>
      .cls-1 {
        fill: #0c8542;
      }

      .cls-1, .cls-2 {
        stroke-width: 0px;
      }

      .cls-3 {
        stroke: #0c8542;
      }

      .cls-3, .cls-4 {
        stroke-width: 2px;
      }

      .cls-3, .cls-4, .cls-5, .cls-6 {
        fill: none;
      }

      .cls-3, .cls-5, .cls-6 {
        stroke-linecap: round;
        stroke-linejoin: round;
      }

      .cls-2 {
        fill: #010101;
      }

      .cls-4 {
        stroke-miterlimit: 10;
      }

      .cls-4, .cls-5, .cls-6 {
        stroke: #231f20;
      }

      .cls-5 {
        fill-rule: evenodd;
      }
    </style>
  </defs>
  <path class="cls-4" d="M521.58,259.11c0-93.96-148.37-143.15-200.67-29.68l-.12-.02c-89.69-2.2-111.1,140.8-12.05,159.35h236.93c74.96-13.19,76.3-139.02-24.09-129.65Z"/>
  <g>
    <path class="cls-6" d="M715.1,286.24c-1.47,5.18-1.22,10.2,1.17,13.48,2.39,3.27,6.7,4.03,6.7,4.03l18.32,2.54"/>
    <path class="cls-6" d="M739.1,284.36c-6.47-1.1-15.25-2.28-17.56-2.08-2.31.2-3.49.44-6.29,2.03s-3.76,2.13-3.76,2.13l-.53.71c.14.3.23.7.22,1.22,0,2.13-.61,3.65-2.11,4.57-.46.28-1.99,1.02-3.9,1.92l-1,1.33s0,5.37,5.18,7.71c5.18,2.35,12.47,2.81,14.98,2.33,3.35-.64,7.89-1,8.59.03.78,1.14-.1,1.24.38,1.67.48.43,1.42.53,2.59.53s3.88-.91,7.76-2.03c3.88-1.12,4.77-6.72,4.77-11.47-.34-5.18-3.39-9.59-9.34-10.61Z"/>
    <path class="cls-6" d="M705.89,287.7s1.2-.49,2.89-1.09c1.31-.47,2.42-.19,2.42,1.77,0,2.13-.61,3.65-2.11,4.57-1.5.91-14.44,6.75-14.49,6.78s-4.06,2.31-5.02,3.27c-.96.96-1.12,1.42-1.12,1.42,0,0-.36-5.63-.3-5.99s-.1-1.42,1.42-2.79,4.11-2.49,4.11-2.49l12.2-5.44Z"/>
    <path class="cls-6" d="M701.09,297.76c.3,3.4,1.42,7.66,5.79,9.29,4.36,1.62,7.61,1.73,11.27,1.42s6.97-1.23,8.17-1.52,3.65-.81,4.62-.15c.96.66.41,1.52,0,2.18-.41.66-.4,1.07.53,1.52s2.02.61,2.74.47c1.5-.29,1.71-1.09,2.13-1.99"/>
    <path class="cls-6" d="M693.55,301.03c2.21.63,5.63,1.19,7.94,1.34"/>
    <path class="cls-6" d="M697.13,290.96c2.18-5.63,4.36-10.81,10.45-14.16,6.09-3.35,11.01.3,12.94,4.72"/>
    <path class="cls-6" d="M705.05,287.3c2.59-4.11,4.36-7.36,10.71-10.1"/>
    <path class="cls-6" d="M712.76,275.49l7.76,1.05s3.55.36,6.19,5.43"/>
    <path class="cls-6" d="M688.95,305.09c9.55,2.26,12.14,2.56,19.37,2.97"/>
  </g>
  <path class="cls-2" d="M706.77,205.77h17.98c1.33,0,2.54.54,3.42,1.42.88.88,1.42,2.09,1.42,3.42v37.98c0,1.33-.54,2.54-1.42,3.42-.88.88-2.09,1.42-3.42,1.42h-17.98c-1.33,0-2.54-.54-3.42-1.42-.88-.88-1.42-2.09-1.42-3.42v-37.98c0-1.33.54-2.54,1.42-3.42.88-.88,2.09-1.42,3.42-1.42h0ZM713.15,249.59c-.32,0-.58-.26-.58-.58s.26-.58.58-.58h5.32c.32,0,.58.26.58.58s-.26.58-.58.58h-5.32ZM712.65,208.55c.51,0,.92.41.92.92s-.41.92-.92.92-.92-.41-.92-.92c0-.51.41-.92.92-.92h0ZM715.76,208.55c.51,0,.92.41.92.92s-.41.92-.92.92-.92-.41-.92-.92.41-.92.92-.92h0ZM718.86,208.55c.51,0,.92.41.92.92s-.41.92-.92.92-.92-.41-.92-.92.41-.92.92-.92h0ZM703.09,244.28h25.33v-31.05h-25.33v31.05h0ZM728.42,245.44h-25.33v3.15c0,1.01.41,1.93,1.08,2.59.67.67,1.59,1.08,2.59,1.08h17.98c1.01,0,1.93-.41,2.59-1.08.67-.67,1.08-1.59,1.08-2.59v-3.15h0ZM703.09,212.06h25.33v-1.45c0-1.01-.41-1.93-1.08-2.59-.67-.67-1.59-1.08-2.6-1.08h-17.98c-1.01,0-1.93.41-2.59,1.08-.67.67-1.08,1.59-1.08,2.59v1.45h0Z"/>
  <path class="cls-5" d="M690.58,343.03h50.36c.8,0,1.45.65,1.45,1.45v33.36c0,.8-.65,1.45-1.45,1.45h-50.36c-.8,0-1.45-.65-1.45-1.45v-33.36c0-.8.65-1.45,1.45-1.45h0ZM715.76,374.41c1.03,0,1.86.83,1.86,1.86s-.83,1.86-1.86,1.86-1.86-.83-1.86-1.86c0-1.03.83-1.86,1.86-1.86h0ZM693.48,345.75h44.55c.71,0,1.28.58,1.28,1.28v24.93c0,.7-.58,1.28-1.28,1.28h-44.55c-.7,0-1.28-.58-1.28-1.28v-24.93c0-.7.57-1.28,1.28-1.28h0ZM704.35,387.19l11.41-5.91,11.41,5.91"/>
  <path class="cls-5" d="M99.15,273.29h50.36c.8,0,1.45.65,1.45,1.45v33.36c0,.8-.65,1.45-1.45,1.45h-50.36c-.8,0-1.45-.65-1.45-1.45v-33.36c0-.8.65-1.45,1.45-1.45h0ZM124.33,304.68c1.03,0,1.86.83,1.86,1.86s-.83,1.86-1.86,1.86-1.86-.83-1.86-1.86c0-1.03.83-1.86,1.86-1.86h0ZM102.06,276.02h44.55c.71,0,1.28.58,1.28,1.28v24.93c0,.7-.58,1.28-1.28,1.28h-44.55c-.7,0-1.28-.58-1.28-1.28v-24.93c0-.7.57-1.28,1.28-1.28h0ZM112.92,317.46l11.41-5.91,11.41,5.91"/>
  <g>
    <line class="cls-3" x1="668.81" y1="231.87" x2="617.27" y2="231.87"/>
    <polygon class="cls-1" points="676.86 231.87 665.51 227.24 668.2 231.87 665.51 236.51 676.86 231.87"/>
    <polygon class="cls-1" points="609.22 231.87 620.56 227.24 617.87 231.87 620.56 236.51 609.22 231.87"/>
  </g>
  <g>
    <line class="cls-3" x1="668.81" y1="290.96" x2="617.27" y2="290.96"/>
    <polygon class="cls-1" points="676.86 290.96 665.51 286.32 668.2 290.96 665.51 295.59 676.86 290.96"/>
    <polygon class="cls-1" points="609.22 290.96 620.56 286.32 617.87 290.96 620.56 295.59 609.22 290.96"/>
  </g>
  <g>
    <line class="cls-3" x1="668.81" y1="361.15" x2="617.27" y2="361.15"/>
    <polygon class="cls-1" points="676.86 361.15 665.51 356.52 668.2 361.15 665.51 365.79 676.86 361.15"/>
    <polygon class="cls-1" points="609.22 361.15 620.56 356.52 617.87 361.15 620.56 365.79 609.22 361.15"/>
  </g>
  <g>
    <line class="cls-3" x1="227.92" y1="293.47" x2="176.38" y2="293.47"/>
    <polygon class="cls-1" points="235.97 293.47 224.62 288.83 227.32 293.47 224.62 298.1 235.97 293.47"/>
    <polygon class="cls-1" points="168.33 293.47 179.68 288.83 176.98 293.47 179.68 298.1 168.33 293.47"/>
  </g>
</svg>