<?xml version="1.0" encoding="UTF-8"?>
<svg id="DEMO_MODE" data-name="DEMO MODE" xmlns="http://www.w3.org/2000/svg" viewBox="0 0 841.89 310.67">
  <defs>
    <style>
      .cls-1, .cls-2, .cls-3, .cls-4, .cls-5 {
        fill: none;
      }

      .cls-1, .cls-3 {
        stroke-miterlimit: 10;
      }

      .cls-1, .cls-3, .cls-4, .cls-5 {
        stroke: #231f20;
      }

      .cls-6 {
        fill: #0c8542;
        stroke-width: 0px;
      }

      .cls-2 {
        stroke: #0c8542;
      }

      .cls-2, .cls-3 {
        stroke-width: 2px;
      }

      .cls-2, .cls-4, .cls-5 {
        stroke-linecap: round;
        stroke-linejoin: round;
      }

      .cls-4 {
        fill-rule: evenodd;
      }
    </style>
  </defs>
  <path class="cls-3" d="M502.06,142.12c0-75.62-119.41-115.22-161.51-23.89h-.09c-72.18-1.79-89.42,113.31-9.7,128.24h190.7c60.33-10.62,61.41-111.89-19.39-104.35Z"/>
  <g>
    <path class="cls-5" d="M709.69,151.97c-1.92,6.75-1.59,13.32,1.52,17.59,3.11,4.27,8.74,5.26,8.74,5.26l23.91,3.31"/>
    <path class="cls-5" d="M741.02,149.52c-8.45-1.44-19.9-2.98-22.91-2.72-3.01.26-4.55.57-8.21,2.65s-4.9,2.78-4.9,2.78l-.69.92c.19.39.3.91.29,1.6,0,2.78-.79,4.77-2.75,5.96-.6.37-2.6,1.33-5.09,2.5l-1.3,1.73s0,7,6.75,10.07c6.75,3.06,16.28,3.67,19.55,3.05,4.38-.83,10.3-1.31,11.21.03,1.01,1.49-.13,1.62.5,2.19.63.56,1.85.7,3.38.7s5.06-1.18,10.13-2.65c5.07-1.47,6.22-8.77,6.22-14.97-.45-6.75-4.42-12.52-12.18-13.84Z"/>
    <path class="cls-5" d="M697.68,153.87s1.57-.64,3.77-1.43c1.71-.61,3.16-.25,3.15,2.3,0,2.78-.79,4.77-2.75,5.96-1.95,1.19-18.84,8.81-18.91,8.84s-5.3,3.01-6.56,4.27c-1.26,1.26-1.46,1.85-1.46,1.85,0,0-.46-7.35-.4-7.81.07-.46-.13-1.85,1.85-3.64s5.36-3.24,5.36-3.24l15.93-7.1Z"/>
    <path class="cls-5" d="M691.42,167c.4,4.44,1.85,10,7.55,12.12,5.7,2.12,9.93,2.25,14.7,1.85s9.09-1.6,10.66-1.99,4.77-1.06,6.03-.2c1.26.86.53,1.99,0,2.85-.53.86-.53,1.39.7,1.99s2.63.79,3.57.61c1.96-.38,2.24-1.43,2.78-2.59"/>
    <path class="cls-5" d="M681.58,171.27c2.88.83,7.35,1.56,10.36,1.75"/>
    <path class="cls-5" d="M686.25,158.13c2.85-7.35,5.7-14.11,13.64-18.48,7.95-4.37,14.37.4,16.89,6.16"/>
    <path class="cls-5" d="M696.58,153.36c3.38-5.36,5.7-9.6,13.97-13.18"/>
    <path class="cls-5" d="M706.65,137.95l10.13,1.37s4.64.46,8.08,7.09"/>
    <path class="cls-5" d="M675.57,176.57c12.47,2.95,15.84,3.34,25.28,3.87"/>
  </g>
  <path class="cls-1" d="M698.82,46.96h23.46c1.74,0,3.31.71,4.46,1.85,1.14,1.14,1.85,2.72,1.85,4.46v49.56c0,1.74-.71,3.31-1.85,4.46-1.14,1.14-2.72,1.85-4.46,1.85h-23.46c-1.74,0-3.31-.71-4.46-1.85-1.14-1.14-1.85-2.72-1.85-4.46v-49.56c0-1.74.71-3.31,1.85-4.46,1.14-1.14,2.72-1.85,4.46-1.85h0ZM707.15,104.15c-.42,0-.76-.34-.76-.76s.34-.76.76-.76h6.94c.42,0,.76.34.76.76s-.34.76-.76.76h-6.94ZM706.51,50.59c.66,0,1.2.54,1.2,1.2s-.54,1.2-1.2,1.2-1.2-.54-1.2-1.2c0-.66.54-1.2,1.2-1.2h0ZM710.56,50.59c.66,0,1.2.54,1.2,1.2s-.54,1.2-1.2,1.2-1.2-.54-1.2-1.2.54-1.2,1.2-1.2h0ZM714.6,50.59c.66,0,1.2.54,1.2,1.2s-.54,1.2-1.2,1.2-1.2-.54-1.2-1.2.54-1.2,1.2-1.2h0ZM694.03,97.21h33.05v-40.53h-33.05v40.53h0ZM727.08,98.73h-33.05v4.11c0,1.32.54,2.52,1.41,3.39.87.87,2.07,1.41,3.39,1.41h23.46c1.32,0,2.52-.54,3.39-1.41.87-.87,1.41-2.07,1.41-3.39v-4.11h0ZM694.03,55.17h33.05v-1.89c0-1.32-.54-2.52-1.41-3.39-.87-.87-2.07-1.41-3.39-1.41h-23.46c-1.32,0-2.52.54-3.39,1.41-.87.87-1.41,2.07-1.41,3.39v1.89h0Z"/>
  <path class="cls-4" d="M677.69,213.1h65.72c1.04,0,1.89.85,1.89,1.89v43.54c0,1.04-.85,1.89-1.89,1.89h-65.72c-1.04,0-1.89-.85-1.89-1.89v-43.54c0-1.04.85-1.89,1.89-1.89h0ZM710.56,254.05c1.34,0,2.43,1.09,2.43,2.43s-1.09,2.43-2.43,2.43-2.43-1.09-2.43-2.43c0-1.34,1.09-2.43,2.43-2.43h0ZM681.49,216.66h58.14c.92,0,1.67.75,1.67,1.67v32.53c0,.92-.75,1.67-1.67,1.67h-58.14c-.92,0-1.67-.75-1.67-1.67v-32.53c0-.92.75-1.67,1.67-1.67h0ZM695.67,270.73l14.89-7.71,14.89,7.71"/>
  <path class="cls-4" d="M88.36,145.89h65.72c1.04,0,1.89.85,1.89,1.89v43.54c0,1.04-.85,1.89-1.89,1.89h-65.72c-1.04,0-1.89-.85-1.89-1.89v-43.54c0-1.04.85-1.89,1.89-1.89h0ZM121.22,186.84c1.34,0,2.43,1.09,2.43,2.43s-1.09,2.43-2.43,2.43-2.43-1.09-2.43-2.43c0-1.34,1.09-2.43,2.43-2.43h0ZM92.16,149.45h58.14c.92,0,1.67.75,1.67,1.67v32.53c0,.92-.75,1.67-1.67,1.67h-58.14c-.92,0-1.67-.75-1.67-1.67v-32.53c0-.92.75-1.67,1.67-1.67h0ZM106.34,203.52l14.89-7.71,14.89,7.71"/>
  <g>
    <line class="cls-2" x1="651.74" y1="81.03" x2="579.58" y2="81.03"/>
    <polygon class="cls-6" points="659.79 81.03 648.45 76.39 651.14 81.03 648.45 85.66 659.79 81.03"/>
    <polygon class="cls-6" points="571.53 81.03 582.87 76.39 580.18 81.03 582.87 85.66 571.53 81.03"/>
  </g>
  <g>
    <line class="cls-2" x1="651.74" y1="158.13" x2="579.58" y2="158.13"/>
    <polygon class="cls-6" points="659.79 158.13 648.45 153.49 651.14 158.13 648.45 162.76 659.79 158.13"/>
    <polygon class="cls-6" points="571.53 158.13 582.87 153.49 580.18 158.13 582.87 162.76 571.53 158.13"/>
  </g>
  <g>
    <line class="cls-2" x1="651.74" y1="236.76" x2="579.58" y2="236.76"/>
    <polygon class="cls-6" points="659.79 236.76 648.45 232.12 651.14 236.76 648.45 241.39 659.79 236.76"/>
    <polygon class="cls-6" points="571.53 236.76 582.87 232.12 580.18 236.76 582.87 241.39 571.53 236.76"/>
  </g>
  <g>
    <line class="cls-2" x1="258.86" y1="172.22" x2="186.7" y2="172.22"/>
    <polygon class="cls-6" points="266.91 172.22 255.56 167.58 258.26 172.22 255.56 176.85 266.91 172.22"/>
    <polygon class="cls-6" points="178.65 172.22 189.99 167.58 187.3 172.22 189.99 176.85 178.65 172.22"/>
  </g>
</svg>