<?xml version="1.0" encoding="UTF-8"?>
<svg id="DEMO_MODE" data-name="DEMO MODE" xmlns="http://www.w3.org/2000/svg" viewBox="0 0 841.89 595.28">
  <defs>
    <style>
      .cls-1, .cls-2, .cls-3, .cls-4, .cls-5, .cls-6 {
        fill: none;
      }

      .cls-1, .cls-3, .cls-4 {
        stroke-miterlimit: 10;
      }

      .cls-1, .cls-3, .cls-4, .cls-5, .cls-6 {
        stroke: #231f20;
      }

      .cls-7 {
        fill: #0c8542;
      }

      .cls-7, .cls-8 {
        stroke-width: 0px;
      }

      .cls-2 {
        stroke: #0c8542;
      }

      .cls-2, .cls-4 {
        stroke-width: 2px;
      }

      .cls-2, .cls-5, .cls-6 {
        stroke-linecap: round;
        stroke-linejoin: round;
      }

      .cls-3 {
        stroke-width: .75px;
      }

      .cls-8 {
        fill: #010101;
      }

      .cls-5 {
        fill-rule: evenodd;
      }
    </style>
  </defs>
  <g>
    <path class="cls-1" d="M313.56,261.93c.25-.19.53-.35.75-.57,3.85-3.81,7.67-7.63,11.54-11.42.33-.33.91-.53,1.38-.56,1.1-.07,2.2-.04,3.3.03.81.05,1.32-.17,1.68-.94.39-.86.97-1.63,1.38-2.49.4-.84.99-1.27,1.91-1.5,5.41-1.39,10.79-2.84,16.29-4.3.45,1.65.88,3.28,1.32,4.9,1.06,3.95,2.14,7.89,3.17,11.85.1.37.02.88-.16,1.23-.6,1.13-1.26,2.22-1.94,3.3-.3.47-.28.83.01,1.29.64,1,1.18,2.07,1.84,3.05.41.61.38,1.18.2,1.83-1.48,5.46-2.95,10.93-4.42,16.39h-.36c-.16-.07-.31-.16-.47-.21-5.31-1.42-10.61-2.85-15.92-4.24-.56-.15-.93-.39-1.21-.91-.58-1.1-1.19-2.19-1.87-3.23-.2-.3-.66-.59-1.02-.6-1.25-.06-2.5.06-3.75,0-.47-.02-1.05-.24-1.38-.56-3.87-3.78-7.69-7.6-11.54-11.41-.22-.22-.5-.38-.75-.57,0-.12,0-.24,0-.36ZM322.48,264.24c.17.23.22.33.3.41,2.98,3.03,5.97,6.07,8.97,9.08.25.25.64.42,1,.52,2.27.61,4.54,1.18,6.82,1.76,1.92.49,3.83.97,5.94,1.5-2.58-4.44-5.06-8.7-7.55-12.94-.1-.17-.43-.31-.65-.31-4.88-.02-9.77-.01-14.82-.01ZM345.49,246.72c-.35.08-.49.11-.63.14-4,1.02-8.01,2.03-12,3.09-.46.12-.95.38-1.28.71-2.88,2.88-5.73,5.79-8.59,8.7-.15.15-.27.34-.42.53.14.04.19.08.24.08,4.83,0,9.65.02,14.48-.02.29,0,.68-.31.84-.59,1.06-1.75,2.08-3.53,3.11-5.3,1.38-2.39,2.77-4.77,4.26-7.34ZM349.22,275.31c.1-.28.15-.38.19-.5,1.15-4.08,2.31-8.15,3.43-12.23.09-.34.04-.77-.06-1.12-1.08-3.94-2.19-7.88-3.29-11.81-.06-.2-.16-.4-.24-.62-.11.1-.16.14-.19.19-2.42,4.15-4.85,8.3-7.23,12.47-.14.25-.06.74.09,1.02,1.12,1.99,2.28,3.96,3.43,5.93,1.26,2.18,2.53,4.35,3.88,6.67Z"/>
    <path class="cls-1" d="M364.7,253.45c1.31,0,2.55-.03,3.79.04.15,0,.4.5.41.78.03,2.82,0,5.64.03,8.46,0,.71.03,1.43.18,2.12.43,1.98,1.6,2.83,3.73,2.81,2.07-.01,3.44-1.03,3.82-2.91.13-.66.18-1.35.18-2.03.02-2.73,0-5.47,0-8.2,0-.32,0-.64,0-1.07,1.31,0,2.56-.02,3.8.03.15,0,.39.46.39.7.03,1.87.02,3.74.02,5.61,0,3.39,0,6.77,0,10.16,0,.32,0,.64,0,1.03h-3.95c-.03-.63-.06-1.23-.09-2.06-1.61,2.31-3.76,2.81-6.21,2.65-3.22-.22-5.36-2.11-5.92-5.29-.12-.7-.19-1.41-.19-2.12-.02-3.27,0-6.53,0-9.8,0-.26,0-.53,0-.9Z"/>
    <path class="cls-1" d="M386.96,270.99h-4.17v-17.47h3.84v1.94c.12-.01.21,0,.22-.03,1.99-3.06,6.43-2.97,8.78-1.77,2.29,1.17,3.22,3.26,3.3,5.64.14,3.82.04,7.66.04,11.49,0,.05-.04.1-.09.21h-4.05c-.01-.33-.04-.65-.04-.96,0-2.64,0-5.28,0-7.93,0-.56,0-1.13-.05-1.69-.18-2.31-1.5-3.55-3.74-3.54-2.35,0-3.87,1.28-3.97,3.55-.11,2.61-.05,5.22-.07,7.84,0,.89,0,1.77,0,2.74Z"/>
    <path class="cls-1" d="M420.6,277.24c.79-1.87,1.47-3.67,2.31-5.39.5-1.03.45-1.89.03-2.92-1.95-4.81-3.82-9.65-5.72-14.48-.11-.27-.21-.55-.37-.98,1.47,0,2.85-.03,4.23.03.19,0,.41.45.52.73,1.23,3.28,2.43,6.56,3.64,9.84.1.27.21.54.39.99.18-.41.3-.66.39-.92,1.2-3.29,2.41-6.57,3.57-9.87.23-.65.55-.86,1.22-.83,1.15.06,2.3.02,3.58.02-.52,1.36-.99,2.57-1.46,3.77-2.5,6.38-5.01,12.75-7.47,19.14-.28.72-.63.93-1.36.89-1.12-.06-2.25-.02-3.5-.02Z"/>
    <path class="cls-1" d="M409.3,256.73h-2.88v-3.24h2.8v-6.09h4.24v5.88c.14.08.19.14.23.13,1.33-.25,1.92.45,2.19,1.64.12.53.37,1.04.59,1.65h-2.98v14.3h-4.19v-14.27Z"/>
    <path class="cls-1" d="M404.83,271h-4.13v-17.49h4.13v17.49Z"/>
    <path class="cls-1" d="M404.81,251.02h-4.11v-3.62h4.11v3.62Z"/>
  </g>
  <path class="cls-7" d="M166.68,332.1c-.27.19-.53.37-.79.56-.79.6-1.57,1.22-2.37,1.8-.95.68-1.99,1.21-3.12,1.54-.56.16-1.11.02-1.62-.22-.33-.15-.35-.45-.1-.71.16-.16.32-.32.49-.46.3-.26.51-.57.57-.97.07-.45.31-.82.56-1.19.65-1,1.33-1.97,2.1-2.88.09-.1.17-.22.23-.34.14-.27-.03-.55-.33-.53-1.01.05-2.02.13-3.04.16-1.2.05-2.41.07-3.61.09-.63,0-1.24.04-1.81.36-.24.14-.49.15-.74,0-.25-.15-.48-.12-.7.07-.51.44-1.02.89-1.54,1.31-1.14.9-2.29,1.78-3.43,2.67-.44.34-.9.47-1.48.41-.47-.05-.96.04-1.44.1-.21.03-.35,0-.45-.19-.28-.56-.22-.72.45-.86.14-.03.26.01.32.15.07.15.2.18.35.2.68.12,1.26-.05,1.81-.46,1.29-.96,2.6-1.89,3.89-2.85.64-.48,1.25-1,1.84-1.53.44-.39.93-.5,1.47-.38,1.11.25,2.21.13,3.32-.07.75-.14,1.5-.21,2.26-.31.11-.01.23,0,.39.02-.34-.23-.63-.44-.94-.62-.1-.05-.25-.03-.37-.01-.22.03-.39-.05-.44-.24-.05-.2.08-.4.3-.43.34-.03.66-.07.95.21.19.18.46.28.71.41.15.08.26.02.31-.15.03-.1.09-.2.14-.29.27-.4.55-.8.82-1.2.3-.46.72-.61,1.25-.55.39.04.78.04,1.17.08.65.07,1.31.14,1.96.25.34.05.6,0,.81-.28.46-.6,1.04-1.02,1.78-1.2.17-.04.34-.13.5-.21.33-.18.41-.38.29-.74-.08-.23-.19-.45-.29-.67-.11-.24-.25-.46-.35-.7-.1-.25.04-.55.3-.62.08-.02.2.02.27.07.13.11.24.25.36.38.07.07.14.14.21.2.03,0,.05-.02.08-.02-.01-.14,0-.29-.04-.43-.04-.16-.13-.31-.18-.46-.06-.17,0-.28.19-.32.4-.09.62.09.65.53,0,.13,0,.26,0,.39,0,.13,0,.26.05.4.03-.05.05-.1.08-.16.12-.28.21-.34.51-.33.21,0,.42.04.63.03.4,0,.56-.17.55-.56-.03-.7-.08-1.4-.12-2.1-.05-.92-.13-1.84-.12-2.76,0-.91-.2-1.78-.47-2.64-.06-.2-.1-.4-.16-.63.24-.04.38.09.47.23.36.55.63,1.14.53,1.83-.03.23.02.47.04.71.04.42.11.83.15,1.25.09,1.17.17,2.34.26,3.51.03.34-.06.66-.18.97-.04.1-.06.22-.1.33.22.06.37.01.48-.15.13-.19.27-.38.38-.58.28-.51.68-.88,1.19-1.14.73-.38,1.44-.83,2.2-1.13.82-.32,1.62-.65,2.35-1.14.15-.1.21-.02.24.12.07.29,0,.42-.29.54-.43.18-.87.32-1.28.53-1.06.53-2.13,1.06-3.06,1.81-.47.38-.9.82-1.32,1.26-.3.31-.27.34-.01.67.37.47.51,1,.43,1.59-.01.08-.02.16-.03.24-.02.42-.1.5-.53.56-.18.02-.36.04-.53.09-.07.02-.15.11-.16.17-.02.26-.01.52,0,.78,0,.05.05.12.1.16.25.17.5.3.82.32.49.03.98.08,1.47.13.11.01.23.06.32.13.27.21.58.2.81.02.32-.24.67-.26,1.03-.28.23-.01.43-.08.62-.23.14-.11.32-.16.49-.21.14-.04.27,0,.33.14.09.2.17.41.23.63.04.12-.03.21-.18.21-.1,0-.21,0-.3-.02-.27-.08-.5,0-.71.16-.19.16-.38.33-.57.51-.39.37-.94.63-1.62.28-.41-.21-.91-.26-1.37-.37-.47-.12-.95-.25-1.42-.36-.14-.03-.31-.03-.44.01-.17.06-.33.18-.48.28-.22.14-.33.33-.31.62.02.25-.08.5-.07.75.03.56.12,1.11.14,1.66.02.9.01,1.81,0,2.71,0,.28-.02.56-.03.84,0,.26.11.46.29.63.36.34.73.69,1.1,1.02.79.69,1.37,1.55,2,2.37.21.28.44.53.75.7.44.25.59.69.42,1.15-.05.15-.14.22-.31.22-.34,0-.6-.15-.69-.48-.12-.41-.36-.7-.72-.9-.2-.11-.31-.29-.38-.51-.05-.15-.13-.31-.24-.42-.84-.81-1.68-1.63-2.55-2.4-.5-.45-.77-.94-.74-1.63.05-.91.07-1.82.09-2.74,0-.22-.04-.45-.07-.67-.02-.16-.14-.2-.24-.09-.2.21-.45.42-.55.68-.46,1.16-1.24,2.1-1.98,3.08-.91,1.2-2.13,2.04-3.34,2.89-.73.51-1.49.98-2.24,1.46-.48.31-.89.67-1.18,1.17-.11.19-.25.37-.36.57-.2.35-.47.59-.89.67-.16.03-.34.16-.42.3-.42.73-.83,1.46-1.2,2.21-1.13,2.29-2.32,4.55-3.57,6.78-.09.17-.12.38-.16.57-.05.28-.16.51-.43.61-.28.1-.46.29-.62.52-.19.27-.36.55-.56.8-.12.15-.3.26-.44.4-.08.09-.15.21-.17.32-.04.21-.04.42-.05.63-.02.27-.14.35-.39.24-.17-.08-.33-.18-.48-.29-.14-.1-.15-.24-.04-.38.05-.06.09-.12.14-.16.41-.34.67-.8.97-1.22.24-.34.51-.65.78-.96.2-.24.33-.49.23-.81-.05-.17.03-.3.21-.29.17,0,.25-.08.32-.21.37-.66.74-1.31,1.1-1.97.38-.71.77-1.43,1.12-2.16.43-.88.83-1.77,1.24-2.65.28-.62.59-1.24.82-1.89.3-.84.82-1.49,1.54-1.99.5-.34,1.01-.65,1.52-.97.93-.6,1.66-1.42,2.44-2.19.68-.67,1.38-1.33,2.08-1.98.21-.19.47-.31.7-.47.28-.19.37-.53.19-.83ZM161.22,327.14c.11,0,.16.01.21.01.81,0,1.63.04,2.44,0,.66-.03,1.13-.43,1.5-.95.04-.05.05-.12.07-.18.06-.18,0-.3-.2-.29-.52.03-1.05.06-1.57.14-.28.04-.55.11-.83.05-.17-.04-.34-.06-.51-.09-.18-.03-.32,0-.41.19-.13.26-.28.5-.43.75-.07.11-.15.22-.26.36Z"/>
  <g>
    <path class="cls-3" d="M79.52,333.07c6.27-2.01,13.49.02,19.02,10.11.49.97,1.14.73,1.1-.26.12-1.02-.04-5.3-2.72-9.09-.09-.2,0-.3.15-.44.63-.47,5.27-1.45,10.46-5.17.4-.27,2.13-1.1,1.85-3.56-.87-6.07-5.71-10.19-7.06-11.02-1.35-.83-1.21.62-1.18.84-.25,4.69-1.65,11.6-6.67,16.3-1.79-.5-2.42-1.78-2.42-1.78,0,0,6.78-8.84,5.02-15.89-.46-1.99-1.01-2.69-3.22-2.24-2.21.44-7.48,2.11-7.48,2.11,0,0-.82.32-.18,1.15.64.83,3.76,3.97,1.22,12.73-2.31-.78-7.38-1.76-7.89-.37-.51,1.38-2.27,6.53-.01,6.59Z"/>
    <path class="cls-3" d="M133.75,330.78c-1.42,1.35-9.28,7.23-12.25,8.06-2.97.83-3.5-.68-3.07-1.04.26-.27,6.88-7.42-.47-3.57-2.69.99-5.32-1.21-5.87-3.16-1.17-3.73-1.14-4.47-3.78-2.19-1.43,1.18-3.97,2.45-4.94,2.8-2.9.69-4.06,3.94-1.71,4.27,2.35.33,3.63-.05,2.98.63-.64.68-1.59,1.28-.51,1.87,1.08.59,3.12,2.04,3.24,2.18.12.14,1.06.26,1.35-.43.28-.69.04-.88-.15-.98-.19-.11.01-.41.47-.36.44.05,1.52-.36,1.78-.55.26-.19,3.3-.69,4.05.36-.84.27-1.09-.28-2.28.14-.66.26-2.25.46-3,2.14-.56,1.26-.77,3.87-3.05,3.14-2.28-.74-4.63-1.44-4.27-3.73.36-2.31.21-3.79-1.08-3.87-.07.36.32,2.49,0,4.26-.51,1.31-.69,2.11.33,2.9s8.66,4.4,13.13,9.2c1.71,1.74,2.57-.42,1.31-1.43-.35-.39-1.98-1.84-1.94-2.34s.97.47,1.31.83c-.94-1.88,1.11-4.29,3.29-1.58.89.85.27,2.89-.49,3.44.83-.83-.62-2.91-1.78-1.76-.6.57,1.05,1.88,1.42,2.2.37.33,1.69-.77,2.14-1.53.34-.47.83-.87,1.53-3.92.22-.8.51-1.08,1.22-1.78s11-9.34,12.15-12.97c.69-1.91.37-2.57-1.04-1.23ZM106.89,339.43c-.14-.15-.5-.55-1.6-1.17-.26-.67.34-.75.63-.74.3.01,1.46.82,1.79,1.4.08.71-.68.64-.82.5Z"/>
  </g>
  <path class="cls-4" d="M415.25,238.75c0-37.68-59.49-57.4-80.47-11.9h-.05c-35.96-.89-44.55,56.45-4.83,63.89h95.01c30.06-5.29,30.6-55.75-9.66-51.99Z"/>
  <g>
    <path class="cls-6" d="M693.93,265.85c-1.47,5.18-1.22,10.2,1.17,13.48,2.39,3.27,6.7,4.03,6.7,4.03l18.32,2.54"/>
    <path class="cls-6" d="M717.93,263.97c-6.47-1.1-15.25-2.28-17.56-2.08-2.31.2-3.49.44-6.29,2.03s-3.76,2.13-3.76,2.13l-.53.71c.14.3.23.7.22,1.22,0,2.13-.61,3.65-2.11,4.57-.46.28-1.99,1.02-3.9,1.92l-1,1.33s0,5.37,5.18,7.71c5.18,2.35,12.47,2.81,14.98,2.33,3.35-.64,7.89-1,8.59.03.78,1.14-.1,1.24.38,1.67.48.43,1.42.53,2.59.53s3.88-.91,7.76-2.03c3.88-1.12,4.77-6.72,4.77-11.47-.34-5.18-3.39-9.59-9.34-10.61Z"/>
    <path class="cls-6" d="M684.72,267.31s1.2-.49,2.89-1.09c1.31-.47,2.42-.19,2.42,1.77,0,2.13-.61,3.65-2.11,4.57-1.5.91-14.44,6.75-14.49,6.78s-4.06,2.31-5.02,3.27c-.96.96-1.12,1.42-1.12,1.42,0,0-.36-5.63-.3-5.99s-.1-1.42,1.42-2.79,4.11-2.49,4.11-2.49l12.2-5.44Z"/>
    <path class="cls-6" d="M679.92,277.37c.3,3.4,1.42,7.66,5.79,9.29,4.36,1.62,7.61,1.73,11.27,1.42s6.97-1.23,8.17-1.52,3.65-.81,4.62-.15c.96.66.41,1.52,0,2.18-.41.66-.4,1.07.53,1.52s2.02.61,2.74.47c1.5-.29,1.71-1.09,2.13-1.99"/>
    <path class="cls-6" d="M672.39,280.64c2.21.63,5.63,1.19,7.94,1.34"/>
    <path class="cls-6" d="M675.96,270.57c2.18-5.63,4.36-10.81,10.45-14.16,6.09-3.35,11.01.3,12.94,4.72"/>
    <path class="cls-6" d="M683.88,266.92c2.59-4.11,4.36-7.36,10.71-10.1"/>
    <path class="cls-6" d="M691.59,255.11l7.76,1.05s3.55.36,6.19,5.43"/>
    <path class="cls-6" d="M667.78,284.7c9.55,2.26,12.14,2.56,19.37,2.97"/>
  </g>
  <path class="cls-8" d="M685.6,185.38h17.98c1.33,0,2.54.54,3.42,1.42.88.88,1.42,2.09,1.42,3.42v37.98c0,1.33-.54,2.54-1.42,3.42-.88.88-2.09,1.42-3.42,1.42h-17.98c-1.33,0-2.54-.54-3.42-1.42-.88-.88-1.42-2.09-1.42-3.42v-37.98c0-1.33.54-2.54,1.42-3.42.88-.88,2.09-1.42,3.42-1.42h0ZM691.98,229.2c-.32,0-.58-.26-.58-.58s.26-.58.58-.58h5.32c.32,0,.58.26.58.58s-.26.58-.58.58h-5.32ZM691.49,188.16c.51,0,.92.41.92.92s-.41.92-.92.92-.92-.41-.92-.92c0-.51.41-.92.92-.92h0ZM694.59,188.16c.51,0,.92.41.92.92s-.41.92-.92.92-.92-.41-.92-.92.41-.92.92-.92h0ZM697.69,188.16c.51,0,.92.41.92.92s-.41.92-.92.92-.92-.41-.92-.92.41-.92.92-.92h0ZM681.93,223.89h25.33v-31.05h-25.33v31.05h0ZM707.25,225.05h-25.33v3.15c0,1.01.41,1.93,1.08,2.59.67.67,1.59,1.08,2.59,1.08h17.98c1.01,0,1.93-.41,2.59-1.08.67-.67,1.08-1.59,1.08-2.59v-3.15h0ZM681.93,191.67h25.33v-1.45c0-1.01-.41-1.93-1.08-2.59-.67-.67-1.59-1.08-2.6-1.08h-17.98c-1.01,0-1.93.41-2.59,1.08-.67.67-1.08,1.59-1.08,2.59v1.45h0Z"/>
  <path class="cls-5" d="M669.41,322.64h50.36c.8,0,1.45.65,1.45,1.45v33.36c0,.8-.65,1.45-1.45,1.45h-50.36c-.8,0-1.45-.65-1.45-1.45v-33.36c0-.8.65-1.45,1.45-1.45h0ZM694.59,354.02c1.03,0,1.86.83,1.86,1.86s-.83,1.86-1.86,1.86-1.86-.83-1.86-1.86c0-1.03.83-1.86,1.86-1.86h0ZM672.32,325.36h44.55c.71,0,1.28.58,1.28,1.28v24.93c0,.7-.58,1.28-1.28,1.28h-44.55c-.7,0-1.28-.58-1.28-1.28v-24.93c0-.7.57-1.28,1.28-1.28h0ZM683.18,366.8l11.41-5.91,11.41,5.91"/>
  <path class="cls-5" d="M107.15,242.66h50.36c.8,0,1.45.65,1.45,1.45v33.36c0,.8-.65,1.45-1.45,1.45h-50.36c-.8,0-1.45-.65-1.45-1.45v-33.36c0-.8.65-1.45,1.45-1.45h0ZM132.33,274.05c1.03,0,1.86.83,1.86,1.86s-.83,1.86-1.86,1.86-1.86-.83-1.86-1.86c0-1.03.83-1.86,1.86-1.86h0ZM110.06,245.39h44.55c.71,0,1.28.58,1.28,1.28v24.93c0,.7-.58,1.28-1.28,1.28h-44.55c-.7,0-1.28-.58-1.28-1.28v-24.93c0-.7.57-1.28,1.28-1.28h0ZM120.92,286.83l11.41-5.91,11.41,5.91"/>
  <g>
    <line class="cls-2" x1="178.33" y1="263.47" x2="273.62" y2="263.47"/>
    <polygon class="cls-7" points="281.67 263.47 270.33 268.1 273.02 263.47 270.33 258.84 281.67 263.47"/>
  </g>
  <path class="cls-2" d="M483.92,227.26c3.28,3.15,18.81,18.7,19.56,43.56.88,29.27-19.46,47.4-22.22,49.78"/>
  <path class="cls-2" d="M529.25,205.04c5.28,5.45,28.11,30.23,28.44,68.44.42,47.2-33.82,75.59-38.22,79.11"/>
  <path class="cls-2" d="M595.92,194.37c6.78,10.21,27.54,44.25,24,91.56-3.72,49.68-31.8,81.19-40,89.78"/>
</svg>