<?xml version="1.0" encoding="UTF-8"?>
<svg id="DEMO_MODE" data-name="DEMO MODE" xmlns="http://www.w3.org/2000/svg" viewBox="0 0 841.89 263.33">
  <defs>
    <style>
      .cls-1 {
        fill: #0c8542;
      }

      .cls-1, .cls-2 {
        stroke-width: 0px;
      }

      .cls-3 {
        stroke: #0c8542;
      }

      .cls-3, .cls-4 {
        stroke-width: 2px;
      }

      .cls-3, .cls-4, .cls-5, .cls-6 {
        fill: none;
      }

      .cls-3, .cls-5, .cls-6 {
        stroke-linecap: round;
        stroke-linejoin: round;
      }

      .cls-2 {
        fill: #010101;
      }

      .cls-4 {
        stroke-miterlimit: 10;
      }

      .cls-4, .cls-5, .cls-6 {
        stroke: #231f20;
      }

      .cls-5 {
        fill-rule: evenodd;
      }
    </style>
  </defs>
  <path class="cls-4" d="M419.7,96.21c0-37.68-59.49-57.4-80.47-11.9h-.05c-35.96-.89-44.55,56.45-4.83,63.89h95.01c30.06-5.29,30.6-55.75-9.66-51.99Z"/>
  <g>
    <path class="cls-6" d="M698.39,123.31c-1.47,5.18-1.22,10.2,1.17,13.48,2.39,3.27,6.7,4.03,6.7,4.03l18.32,2.54"/>
    <path class="cls-6" d="M722.39,121.44c-6.47-1.1-15.25-2.28-17.56-2.08-2.31.2-3.49.44-6.29,2.03s-3.76,2.13-3.76,2.13l-.53.71c.14.3.23.7.22,1.22,0,2.13-.61,3.65-2.11,4.57-.46.28-1.99,1.02-3.9,1.92l-1,1.33s0,5.37,5.18,7.71c5.18,2.35,12.47,2.81,14.98,2.33,3.35-.64,7.89-1,8.59.03.78,1.14-.1,1.24.38,1.67.48.43,1.42.53,2.59.53s3.88-.91,7.76-2.03c3.88-1.12,4.77-6.72,4.77-11.47-.34-5.18-3.39-9.59-9.34-10.61Z"/>
    <path class="cls-6" d="M689.18,124.77s1.2-.49,2.89-1.09c1.31-.47,2.42-.19,2.42,1.77,0,2.13-.61,3.65-2.11,4.57-1.5.91-14.44,6.75-14.49,6.78s-4.06,2.31-5.02,3.27c-.96.96-1.12,1.42-1.12,1.42,0,0-.36-5.63-.3-5.99s-.1-1.42,1.42-2.79,4.11-2.49,4.11-2.49l12.2-5.44Z"/>
    <path class="cls-6" d="M684.38,134.83c.3,3.4,1.42,7.66,5.79,9.29,4.36,1.62,7.61,1.73,11.27,1.42s6.97-1.23,8.17-1.52,3.65-.81,4.62-.15c.96.66.41,1.52,0,2.18-.41.66-.4,1.07.53,1.52s2.02.61,2.74.47c1.5-.29,1.71-1.09,2.13-1.99"/>
    <path class="cls-6" d="M676.85,138.11c2.21.63,5.63,1.19,7.94,1.34"/>
    <path class="cls-6" d="M680.42,128.03c2.18-5.63,4.36-10.81,10.45-14.16,6.09-3.35,11.01.3,12.94,4.72"/>
    <path class="cls-6" d="M688.34,124.38c2.59-4.11,4.36-7.36,10.71-10.1"/>
    <path class="cls-6" d="M696.05,112.57l7.76,1.05s3.55.36,6.19,5.43"/>
    <path class="cls-6" d="M672.24,142.17c9.55,2.26,12.14,2.56,19.37,2.97"/>
  </g>
  <path class="cls-2" d="M690.06,42.85h17.98c1.33,0,2.54.54,3.42,1.42.88.88,1.42,2.09,1.42,3.42v37.98c0,1.33-.54,2.54-1.42,3.42-.88.88-2.09,1.42-3.42,1.42h-17.98c-1.33,0-2.54-.54-3.42-1.42-.88-.88-1.42-2.09-1.42-3.42v-37.98c0-1.33.54-2.54,1.42-3.42.88-.88,2.09-1.42,3.42-1.42h0ZM696.44,86.67c-.32,0-.58-.26-.58-.58s.26-.58.58-.58h5.32c.32,0,.58.26.58.58s-.26.58-.58.58h-5.32ZM695.94,45.62c.51,0,.92.41.92.92s-.41.92-.92.92-.92-.41-.92-.92c0-.51.41-.92.92-.92h0ZM699.05,45.62c.51,0,.92.41.92.92s-.41.92-.92.92-.92-.41-.92-.92.41-.92.92-.92h0ZM702.15,45.62c.51,0,.92.41.92.92s-.41.92-.92.92-.92-.41-.92-.92.41-.92.92-.92h0ZM686.39,81.35h25.33v-31.05h-25.33v31.05h0ZM711.71,82.52h-25.33v3.15c0,1.01.41,1.93,1.08,2.59.67.67,1.59,1.08,2.59,1.08h17.98c1.01,0,1.93-.41,2.59-1.08.67-.67,1.08-1.59,1.08-2.59v-3.15h0ZM686.39,49.13h25.33v-1.45c0-1.01-.41-1.93-1.08-2.59-.67-.67-1.59-1.08-2.6-1.08h-17.98c-1.01,0-1.93.41-2.59,1.08-.67.67-1.08,1.59-1.08,2.59v1.45h0Z"/>
  <path class="cls-5" d="M673.87,180.1h50.36c.8,0,1.45.65,1.45,1.45v33.36c0,.8-.65,1.45-1.45,1.45h-50.36c-.8,0-1.45-.65-1.45-1.45v-33.36c0-.8.65-1.45,1.45-1.45h0ZM699.05,211.49c1.03,0,1.86.83,1.86,1.86s-.83,1.86-1.86,1.86-1.86-.83-1.86-1.86c0-1.03.83-1.86,1.86-1.86h0ZM676.77,182.83h44.55c.71,0,1.28.58,1.28,1.28v24.93c0,.7-.58,1.28-1.28,1.28h-44.55c-.7,0-1.28-.58-1.28-1.28v-24.93c0-.7.57-1.28,1.28-1.28h0ZM687.64,224.27l11.41-5.91,11.41,5.91"/>
  <path class="cls-5" d="M111.61,100.13h50.36c.8,0,1.45.65,1.45,1.45v33.36c0,.8-.65,1.45-1.45,1.45h-50.36c-.8,0-1.45-.65-1.45-1.45v-33.36c0-.8.65-1.45,1.45-1.45h0ZM136.79,131.51c1.03,0,1.86.83,1.86,1.86s-.83,1.86-1.86,1.86-1.86-.83-1.86-1.86c0-1.03.83-1.86,1.86-1.86h0ZM114.52,102.85h44.55c.71,0,1.28.58,1.28,1.28v24.93c0,.7-.58,1.28-1.28,1.28h-44.55c-.7,0-1.28-.58-1.28-1.28v-24.93c0-.7.57-1.28,1.28-1.28h0ZM125.38,144.29l11.41-5.91,11.41,5.91"/>
  <g>
    <line class="cls-3" x1="182.79" y1="120.93" x2="278.08" y2="120.93"/>
    <polygon class="cls-1" points="286.13 120.93 274.78 125.57 277.48 120.93 274.78 116.3 286.13 120.93"/>
  </g>
  <path class="cls-3" d="M488.38,84.72c3.28,3.15,18.81,18.7,19.56,43.56.88,29.27-19.46,47.4-22.22,49.78"/>
  <path class="cls-3" d="M533.71,62.5c5.28,5.45,28.11,30.23,28.44,68.44.42,47.2-33.82,75.59-38.22,79.11"/>
  <path class="cls-3" d="M600.38,51.83c6.78,10.21,27.54,44.25,24,91.56-3.72,49.68-31.8,81.19-40,89.78"/>
</svg>